<svg xmlns="http://www.w3.org/2000/svg" viewBox="0 0 32 32" id="tree"><path fill="#ae6f50" d="M18.8 2.14A4.34 4.34 0 0 0 16 1a4.34 4.34 0 0 0-2.8 1.14A1.91 1.91 0 0 0 13 3v26a2 2 0 0 0 2 2h2a2 2 0 0 0 2-2V3a1.91 1.91 0 0 0-.2-.86Z"></path><path fill="#c27c59" d="M18.8 2.14a4.79 4.79 0 0 0-2-1 5.79 5.79 0 0 1 .58.43 1.88 1.88 0 0 1 .2.86v26a2 2 0 0 1-2 2h-2A2 2 0 0 0 15 31h2a2 2 0 0 0 2-2V3a1.91 1.91 0 0 0-.2-.86Z"></path><path fill="#54b88b" d="M24.29 14.91C24 11.32 22 4.75 18.8 2.14A4.34 4.34 0 0 0 16 1a4.34 4.34 0 0 0-2.8 1.14C10 4.75 8 11.32 7.71 14.91a6 6 0 0 0-2.71 5 4 4 0 0 0 4 4h14a4 4 0 0 0 4-4 6 6 0 0 0-2.71-5Z"></path><path fill="#67dba1" d="M16 23.92zm8.29-9.01C24 11.32 22 4.75 18.8 2.14A4.34 4.34 0 0 0 16 1a3.83 3.83 0 0 0-1.71.43 5.65 5.65 0 0 1 1.09.71c3.19 2.61 5.25 9.18 5.5 12.77a6 6 0 0 1 2.7 5 4 4 0 0 1-4 4H23a4 4 0 0 0 4-4 6 6 0 0 0-2.71-5z"></path></svg>