<svg xmlns="http://www.w3.org/2000/svg" enable-background="new 0 0 64 64" viewBox="0 0 64 64" id="tree"><path fill="#4e5292" d="M38.94,59.84c-1.18-2.9-1.37-7.5-1.58-12.83l-0.06-1.4c-0.07-1.94,0.41-3.8,1.14-5.49
		c1.69,0.74,3.51,1.13,5.39,1.13c7.45,0,13.52-6.07,13.52-13.52c0-6.01-3.97-11.28-9.69-12.97C47.64,6.63,41.01,0,32.87,0
		c-4.65,0-9.04,2.21-11.82,5.93c-0.42-0.05-0.85-0.07-1.31-0.07c-6.88,0-12.47,5.59-12.47,12.48c0,1.06,0.13,2.12,0.39,3.13
		c-1.66,2.17-2.58,4.85-2.58,7.6c0,6.89,5.59,12.49,12.48,12.49c2.27,0,4.91-0.92,6.66-1.86c1.14,1.04,2.17,2.5,3.49,4.69
		c3.21,5.36,1.25,12.36,0.12,15.42c-9.22,0.25-21.24,1.2-21.24,3.7c0,0.28,0.23,0.49,0.49,0.49h51.35c0.28,0,0.49-0.22,0.49-0.49
		C58.91,61.12,47.96,60.14,38.94,59.84z M17.56,40.58c-6.34,0-11.49-5.16-11.49-11.51c0-2.61,0.9-5.16,2.52-7.19
		c0.1-0.12,0.14-0.29,0.09-0.44c-0.29-1-0.42-2.05-0.42-3.1c0-6.33,5.15-11.49,11.49-11.49c0.52,0,1,0.03,1.48,0.09
		c0.18,0.02,0.35-0.05,0.46-0.2c2.58-3.6,6.76-5.75,11.19-5.75c7.61,0,13.8,6.19,13.8,13.8c0,0.1,0,0.21-0.01,0.31
		c-0.02,0.25,0.13,0.46,0.36,0.52c5.49,1.45,9.33,6.43,9.33,12.12c0,6.91-5.62,12.53-12.53,12.53c-1.74,0-3.41-0.36-4.97-1.04
		c2.05-4.09,5.42-6.97,5.46-7.01c0.19-0.16,0.24-0.42,0.11-0.63l-1.21-2.05c-0.12-0.21-0.36-0.3-0.59-0.22
		c-1.83,0.63-3.72,1.83-5.76,3.64c-0.47-4.61,1.41-9.31,1.43-9.36c0.06-0.13,0.05-0.29-0.02-0.41c-0.07-0.13-0.19-0.23-0.33-0.25
		l-1.79-0.36c-0.17-0.04-0.34,0.03-0.46,0.16c-4.43,4.93-4.6,12.29-4.51,14.85c-0.56-0.31-1.11-0.63-1.64-0.95
		c-1.43-0.82-2.79-1.6-4.16-2.2c0.19-5.02-1.34-7.64-1.4-7.76c-0.07-0.11-0.18-0.2-0.32-0.23c-0.13-0.03-0.27-0.01-0.37,0.07
		l-1.15,0.73c-0.2,0.12-0.28,0.34-0.22,0.56c0.69,2.19,0.02,4.99-0.31,6.09c-2.5-0.15-4.63,0.15-4.73,0.17
		c-0.14,0.02-0.27,0.1-0.34,0.23c-0.08,0.12-0.1,0.27-0.05,0.4l0.58,1.82c0.05,0.17,0.2,0.3,0.36,0.33
		c2.76,0.58,4.51,1.14,5.96,2.16C21.79,39.83,19.5,40.58,17.56,40.58z M28.55,43.88c-1.45-2.4-2.62-3.98-3.89-5.09
		c-0.04-0.05-0.08-0.08-0.12-0.11c-1.69-1.44-3.6-2.08-6.63-2.73l-0.32-0.97c0.86-0.09,2.54-0.21,4.33-0.07
		c0.23,0.04,0.43-0.12,0.5-0.33c0.31-0.93,1.18-4.05,0.52-6.7l0.38-0.24c0.41,0.95,1.22,3.35,1.02,7.09
		c-0.01,0.21,0.12,0.4,0.31,0.48c1.44,0.58,2.87,1.41,4.37,2.27c0.78,0.45,1.6,0.92,2.44,1.38c0.17,0.09,0.36,0.08,0.51-0.02
		c0.15-0.11,0.24-0.28,0.22-0.46c-0.01-0.09-0.82-9.16,4.03-14.79l0.95,0.19c-0.55,1.54-1.91,5.99-1.15,10.27
		c0.03,0.18,0.16,0.32,0.32,0.37c0.18,0.06,0.36,0.02,0.49-0.11c2.06-1.94,3.94-3.23,5.73-3.93l0.8,1.34
		c-1.46,1.33-7.33,7.07-7.05,13.92l0.05,1.4c0.21,5.19,0.39,9.7,1.5,12.76c-1.85-0.05-3.6-0.08-5.12-0.08
		c-1.17,0-2.48,0.02-3.87,0.05C30.26,55.9,31.76,49.24,28.55,43.88z M8.31,63.02c2.14-0.89,8.89-1.99,19.87-2.24
		c0.01,0,0.02,0,0.02,0c1.45-0.03,2.96-0.05,4.56-0.05c13.74,0,22.08,1.3,24.47,2.29H8.31z"></path><path fill="#ccd5dd" d="M57.22,63.02H8.31c2.14-0.89,8.89-1.99,19.87-2.24c0.01,0,0.02,0,0.02,0c1.45-0.03,2.96-0.05,4.56-0.05
		C46.49,60.72,54.83,62.02,57.22,63.02z"></path><path fill="#cfb7a5" d="M36.33,45.66l0.05,1.4c0.21,5.19,0.39,9.7,1.5,12.76c-1.85-0.05-3.6-0.08-5.12-0.08
		c-1.17,0-2.48,0.02-3.87,0.05c1.38-3.89,2.88-10.55-0.33-15.9c-1.45-2.4-2.62-3.98-3.89-5.09c-0.04-0.05-0.08-0.08-0.12-0.11
		c-1.69-1.44-3.6-2.08-6.63-2.73l-0.32-0.97c0.86-0.09,2.54-0.21,4.33-0.07c0.23,0.04,0.43-0.12,0.5-0.33
		c0.31-0.93,1.18-4.05,0.52-6.7l0.38-0.24c0.41,0.95,1.22,3.35,1.02,7.09c-0.01,0.21,0.12,0.4,0.31,0.48
		c1.44,0.58,2.87,1.41,4.37,2.27c0.78,0.45,1.6,0.92,2.44,1.38c0.17,0.09,0.36,0.08,0.51-0.02c0.15-0.11,0.24-0.28,0.22-0.46
		c-0.01-0.09-0.82-9.16,4.03-14.79l0.95,0.19c-0.55,1.54-1.91,5.99-1.15,10.27c0.03,0.18,0.16,0.32,0.32,0.37
		c0.18,0.06,0.36,0.02,0.49-0.11c2.06-1.94,3.94-3.23,5.73-3.93l0.8,1.34C41.92,33.06,36.05,38.8,36.33,45.66z"></path><path fill="#e2cec3" d="M36.33,45.66l0.05,1.4c0.21,5.19,0.39,9.7,1.5,12.76c-0.4-0.01-0.8-0.02-1.18-0.03
		c-1.09-3.06-1.28-7.56-1.49-12.73l-0.05-1.4c-0.27-6.66,6.12-13,7.83-14.57l0.39,0.65C41.92,33.06,36.05,38.8,36.33,45.66z"></path><path fill="#bea796" d="M29.95,59.77c-0.34,0-0.7,0.01-1.06,0.02c0-0.01,0-0.01,0.01-0.02c1.38-3.89,2.86-10.54-0.34-15.88
		c-1.45-2.4-2.62-3.98-3.89-5.09c-0.04-0.05-0.08-0.08-0.12-0.11c-1.69-1.44-3.6-2.08-6.63-2.73l-0.26-0.78
		c3.44,0.62,6.3,2.12,7.94,3.51c0.04,0.03,0.08,0.06,0.12,0.11c1.27,1.11,2.44,2.69,3.89,5.09C32.8,49.23,31.33,55.88,29.95,59.77z"></path><path fill="#98d3ba" d="M56.36,27.74c0,6.91-5.62,12.53-12.53,12.53c-1.74,0-3.41-0.36-4.97-1.04c2.05-4.09,5.42-6.97,5.46-7.01
		c0.19-0.16,0.24-0.42,0.11-0.63l-1.21-2.05c-0.12-0.21-0.36-0.3-0.59-0.22c-1.83,0.63-3.72,1.83-5.76,3.64
		c-0.47-4.61,1.41-9.31,1.43-9.36c0.06-0.13,0.05-0.29-0.02-0.41c-0.07-0.13-0.19-0.23-0.33-0.25l-1.79-0.36
		c-0.17-0.04-0.34,0.03-0.46,0.16c-4.43,4.93-4.6,12.29-4.51,14.85c-0.56-0.31-1.11-0.63-1.64-0.95c-1.43-0.82-2.79-1.6-4.16-2.2
		c0.19-5.02-1.34-7.64-1.4-7.76c-0.07-0.11-0.18-0.2-0.32-0.23c-0.13-0.03-0.27-0.01-0.37,0.07l-1.15,0.73
		c-0.2,0.12-0.28,0.34-0.22,0.56c0.69,2.19,0.02,4.99-0.31,6.09c-2.5-0.15-4.63,0.15-4.73,0.17c-0.14,0.02-0.27,0.1-0.34,0.23
		c-0.08,0.12-0.1,0.27-0.05,0.4l0.58,1.82c0.05,0.17,0.2,0.3,0.36,0.33c2.76,0.58,4.51,1.14,5.96,2.16
		c-1.6,0.81-3.89,1.56-5.83,1.56c-6.34,0-11.49-5.16-11.49-11.51c0-2.61,0.9-5.16,2.52-7.19c0.1-0.12,0.14-0.29,0.09-0.44
		c-0.29-1-0.42-2.05-0.42-3.1c0-6.33,5.15-11.49,11.49-11.49c0.52,0,1,0.03,1.48,0.09c0.18,0.02,0.35-0.05,0.46-0.2
		c2.58-3.6,6.76-5.75,11.19-5.75c7.61,0,13.8,6.19,13.8,13.8c0,0.1,0,0.21-0.01,0.31c-0.02,0.25,0.13,0.46,0.36,0.52
		C52.52,17.06,56.36,22.05,56.36,27.74z"></path><path fill="#b9e0ce" d="M56.36,27.74c0,6.91-5.62,12.53-12.53,12.53c-0.42,0-0.84-0.02-1.24-0.07c5.2-0.61,9.27-5.97,9.27-12.47
		c0-5.69-3.15-10.67-7.66-12.12c-0.19-0.06-0.32-0.28-0.3-0.52c0.01-0.1,0.01-0.21,0.01-0.31c0-7.55-5.01-13.71-11.19-13.79
		c0.05-0.01,0.1-0.01,0.15-0.01c7.61,0,13.8,6.19,13.8,13.8c0,0.1,0,0.21-0.01,0.31c-0.02,0.25,0.13,0.46,0.36,0.52
		C52.52,17.06,56.36,22.05,56.36,27.74z"></path><path fill="#89c3a8" d="M18.8,40.48c-0.42,0.07-0.84,0.1-1.24,0.1c-6.34,0-11.49-5.16-11.49-11.51c0-2.61,0.9-5.16,2.52-7.19
		c0.1-0.12,0.14-0.29,0.09-0.44c-0.29-1-0.42-2.05-0.42-3.1c0-6.33,5.15-11.49,11.49-11.49c0.39,0,0.77,0.02,1.13,0.06
		c-4.78,0.56-8.51,5.48-8.51,11.43c0,1.05,0.11,2.1,0.34,3.1c0.04,0.16,0.01,0.32-0.07,0.44c-1.34,2.03-2.07,4.58-2.07,7.19
		C10.58,34.92,14.17,39.76,18.8,40.48z"></path></svg>